HIERARCHY
ROOT Hips
{
	OFFSET	0.00	0.00	0.00
	CHANNELS 6 Xposition Yposition Zposition Zrotation Xrotation Yrotation
	JOINT LeftUpLeg
	{
		OFFSET	 0.126116	-0.014019	-0.065224
		CHANNELS 3 Zrotation Xrotation Yrotation
		JOINT LeftLeg
		{
			OFFSET	 0.000000	 0.000000	 0.569914
			CHANNELS 3 Zrotation Xrotation Yrotation
			JOINT LeftFoot
			{
				OFFSET	 0.000000	 0.000000	 0.544423
				CHANNELS 3 Zrotation Xrotation Yrotation
				JOINT LeftToeBase
				{
					OFFSET	 0.000000	 0.000000	 0.207117
					CHANNELS 3 Zrotation Xrotation Yrotation
					End Site
					{
						OFFSET	 0.000000	 0.000000	 0.207117
					}
				}
			}
		}
	}
	JOINT RightUpLeg
	{
		OFFSET	-0.124023	-0.008373	-0.065224
		CHANNELS 3 Zrotation Xrotation Yrotation
		JOINT RightLeg
		{
			OFFSET	 0.000000	 0.000000	 0.570047
			CHANNELS 3 Zrotation Xrotation Yrotation
			JOINT RightFoot
			{
				OFFSET	 0.000000	 0.000000	 0.544354
				CHANNELS 3 Zrotation Xrotation Yrotation
				JOINT RightToeBase
				{
					OFFSET	 0.000000	 0.000000	 0.207540
					CHANNELS 3 Zrotation Xrotation Yrotation
					End Site
					{
						OFFSET	 0.000000	 0.000000	 0.207540
					}
				}
			}
		}
	}
	JOINT Spine
	{
		OFFSET	 0.000184	-0.007763	 0.117403
		CHANNELS 3 Zrotation Xrotation Yrotation
		JOINT Spine1
		{
			OFFSET	 0.000000	 0.000000	 0.137269
			CHANNELS 3 Zrotation Xrotation Yrotation
			JOINT Spine2
			{
				OFFSET	 0.000000	 0.000000	 0.156879
				CHANNELS 3 Zrotation Xrotation Yrotation
				JOINT LeftShoulder
				{
					OFFSET	 0.080501	-0.002496	 0.160144
					CHANNELS 3 Zrotation Xrotation Yrotation
					JOINT LeftArm
					{
						OFFSET	 0.000000	 0.000000	 0.164363
						CHANNELS 3 Zrotation Xrotation Yrotation
						JOINT LeftForeArm
						{
							OFFSET	 0.000000	 0.000000	 0.364576
							CHANNELS 3 Zrotation Xrotation Yrotation
							JOINT LeftHand
							{
								OFFSET	 0.000000	 0.000000	 0.360812
								CHANNELS 3 Zrotation Xrotation Yrotation
								JOINT LeftHandIndex1
								{
									OFFSET	 0.000000	 0.000000	 0.086006
									CHANNELS 3 Zrotation Xrotation Yrotation
									JOINT LeftHandIndex2
									{
										OFFSET	 0.000000	 0.000000	 0.047236
										CHANNELS 3 Zrotation Xrotation Yrotation
										JOINT LeftHandIndex3
										{
											OFFSET	-0.004284	-0.000551	 0.038166
											CHANNELS 3 Zrotation Xrotation Yrotation
											End Site
											{
												OFFSET	-0.004284	-0.000551	 0.038166
											}
										}
									}
								}
							}
						}
					}
				}
				JOINT Neck
				{
					OFFSET	 0.000000	 0.000000	 0.176489
					CHANNELS 3 Zrotation Xrotation Yrotation
					JOINT Head
					{
						OFFSET	 0.000000	-0.001747	 0.077940
						CHANNELS 3 Zrotation Xrotation Yrotation
						End Site
						{
							OFFSET	 0.000000	-0.001747	 0.077940
						}
					}
				}
				JOINT RightShoulder
				{
					OFFSET	-0.080363	 0.000306	 0.159706
					CHANNELS 3 Zrotation Xrotation Yrotation
					JOINT RightArm
					{
						OFFSET	 0.000000	 0.000000	 0.164196
						CHANNELS 3 Zrotation Xrotation Yrotation
						JOINT RightForeArm
						{
							OFFSET	 0.000000	 0.000000	 0.365611
							CHANNELS 3 Zrotation Xrotation Yrotation
							JOINT RightHand
							{
								OFFSET	 0.000000	 0.000000	 0.360648
								CHANNELS 3 Zrotation Xrotation Yrotation
								JOINT RightHandIndex1
								{
									OFFSET	 0.000000	 0.000000	 0.069977
									CHANNELS 3 Zrotation Xrotation Yrotation
									JOINT RightHandIndex2
									{
										OFFSET	 0.000000	 0.000000	 0.052305
										CHANNELS 3 Zrotation Xrotation Yrotation
										JOINT RightHandIndex3
										{
											OFFSET	 0.009002	-0.000782	 0.042196
											CHANNELS 3 Zrotation Xrotation Yrotation
											End Site
											{
												OFFSET	 0.009002	-0.000782	 0.042196
											}
										}
									}
								}
							}
						}
					}
				}
			}
		}
	}
}
MOTION
Frames:    12
Frame Time: 0.03333334
-0.030137	 0.288432	 0.984089	 0.092307	 33.672990	-6.214930	 74.512250	-83.079190	-113.185000	 9.029445	-76.434970	 9.187044	 58.588610	 80.099250	-66.876720	-2.385832	 28.452790	-0.000001	 98.831280	-83.598900	-81.908510	-21.886220	-78.638180	-16.429740	-13.327410	 80.515310	 32.631660	 2.384659	 28.388700	-0.000001	-4.777242	 14.717760	 2.401703	-3.301468	 19.573690	 5.226216	 3.638222	 1.249291	 0.552965	-99.152440	 68.200450	 156.823800	 4.741758	-8.467097	-49.685040	-26.929480	 2.350962	-6.510984	-25.817740	-16.821400	-18.581980	-2.027600	 6.559038	 9.033609	-5.188889	 0.308190	 3.541030	-5.234859	 0.342567	 0.430617	 0.346681	 17.548420	-5.988660	 5.935058	-25.927080	 2.017159	 97.450180	 64.632480	-159.215400	-4.151431	 4.990038	 50.695100	 8.358247	 11.422990	 34.953050	 10.209820	-15.818180	 14.260390	 1.803333	 3.979147	-15.098590	 4.898592	 3.004813	-9.310344	 5.224449	 0.395017	 2.014677
-0.029042	 0.287445	 0.991724	-0.014846	 33.046320	-5.945509	 64.919810	-82.489600	-122.876800	 8.090174	-75.477420	 8.238707	 57.391900	 80.046240	-65.492640	-2.385832	 28.452790	-0.000001	 85.383220	-84.070430	-95.086060	-20.761830	-77.650900	-15.271310	-13.135060	 80.402020	 32.346130	 2.384659	 28.388700	-0.000001	-3.927238	 14.564840	 2.312874	-3.247004	 19.819490	 5.094192	 3.719351	 0.634000	 0.437733	-99.006500	 68.240740	 157.211200	 4.984560	-7.253464	-50.054390	-26.745160	 2.343248	-6.503225	-26.163520	-16.945050	-18.853020	-2.027600	 6.559038	 9.033609	-5.188889	 0.308190	 3.541030	-5.234859	 0.342567	 0.430617	 0.019751	 15.611100	-5.172747	 5.691560	-24.143920	 1.418035	 97.347020	 64.542900	-159.565000	-4.770970	 5.109889	 50.241680	 8.477309	 11.789550	 35.686370	 10.357770	-15.919110	 14.927510	 1.803333	 3.979147	-15.098590	 4.898592	 3.004813	-9.310344	 5.224449	 0.395017	 2.014677
-0.028026	 0.286435	 0.999486	-0.031157	 32.432620	-5.733566	 56.713750	-81.736700	-131.087700	 7.438740	-74.451870	 7.571219	 55.559080	 79.936080	-63.566940	-2.385832	 28.452790	-0.000001	 70.545330	-84.180680	-109.575400	-19.798370	-76.646800	-14.272370	-12.874210	 80.249580	 31.965060	 2.384659	 28.388700	-0.000001	-3.123061	 14.408940	 2.242095	-3.178890	 20.095540	 4.929391	 3.756591	-0.013731	 0.335807	-98.750980	 68.501170	 157.610600	 5.289575	-5.844144	-50.579820	-26.519860	 2.335505	-6.495813	-26.526690	-17.129530	-19.242920	-2.027600	 6.559038	 9.033609	-5.188889	 0.308190	 3.541030	-5.234859	 0.342567	 0.430617	-0.252082	 13.382390	-4.625409	 5.522167	-22.044480	 0.980159	 97.216340	 64.330440	-160.095300	-5.465550	 5.027976	 49.922570	 8.515320	 12.125440	 36.450410	 10.262780	-15.838180	 15.558140	 1.803333	 3.979147	-15.098590	 4.898592	 3.004813	-9.310344	 5.224449	 0.395017	 2.014677
-0.026854	 0.285309	 1.007723	-0.034643	 31.795130	-5.529611	 49.686310	-80.777060	-138.106400	 6.836957	-73.341190	 6.952107	 53.667710	 79.800780	-61.564230	-2.385832	 28.452790	-0.000001	 55.484110	-83.854460	-124.267600	-18.902400	-75.561630	-13.337410	-12.572340	 80.078640	 31.550110	 2.384659	 28.388700	-0.000001	-2.309025	 14.235050	 2.165843	-3.105286	 20.287100	 4.764999	 3.781502	-0.623886	 0.232616	-98.496970	 68.763190	 158.011700	 5.659219	-4.371371	-51.069860	-26.204280	 2.321976	-6.480843	-26.956670	-17.358170	-19.678300	-2.027600	 6.559038	 9.033609	-5.188889	 0.308190	 3.541030	-5.234859	 0.342567	 0.430617	-0.500582	 11.148760	-4.093976	 5.372502	-19.942820	 0.555877	 97.082760	 64.117450	-160.625800	-6.203695	 4.973023	 49.493800	 8.513095	 12.488510	 37.326930	 10.179640	-15.741980	 16.183560	 1.803333	 3.979147	-15.098590	 4.898592	 3.004813	-9.310344	 5.224449	 0.395017	 2.014677
-0.025597	 0.284042	 1.016249	-0.053559	 31.080410	-5.292906	 43.681400	-79.619160	-144.139900	 6.306126	-72.190220	 6.403240	 51.903880	 79.667510	-59.678460	-2.385832	 28.452790	-0.000001	 41.763790	-83.100930	-137.611500	-18.161110	-74.415040	-12.551760	-12.189770	 79.933230	 31.047590	 2.384659	 28.388700	-0.000001	-1.514607	 14.056750	 2.089861	-3.063586	 20.490870	 4.625877	 3.799946	-1.344866	 0.119149	-98.107730	 69.285740	 158.449000	 6.172307	-2.642456	-51.610940	-25.998660	 2.307013	-6.464430	-27.286980	-17.532480	-20.237490	-2.027600	 6.559038	 9.033609	-5.188889	 0.308190	 3.541030	-5.234859	 0.342567	 0.430617	-0.715053	 8.476228	-3.509732	 5.179951	-17.456180	 0.011523	 96.919690	 64.136480	-161.025300	-7.002094	 5.352192	 48.967890	 8.269198	 12.736770	 38.309800	 10.044250	-15.600660	 16.659890	 1.803333	 3.979147	-15.098590	 4.898592	 3.004813	-9.310344	 5.224449	 0.395017	 2.014677
-0.024230	 0.282442	 1.025203	-0.065260	 30.305500	-5.041768	 38.628490	-78.268860	-149.235700	 5.825395	-70.974880	 5.903457	 50.200780	 79.531740	-57.827930	-2.385833	 28.452760	 0.000004	 30.566100	-81.948780	-148.413300	-17.509750	-73.190930	-11.850480	-11.745960	 79.792690	 30.492180	 2.384659	 28.388700	-0.000001	-0.702620	 13.854960	 2.006922	-3.028476	 20.657710	 4.501436	 3.808676	-2.111176	-0.005295	-97.647560	 69.941250	 158.911900	 6.753574	-0.744426	-52.185470	-25.679110	 2.289209	-6.444633	-27.712770	-17.761320	-20.943750	-2.027600	 6.559038	 9.033609	-5.188889	 0.308190	 3.541030	-5.234859	 0.342567	 0.430617	-0.897997	 5.540219	-2.895142	 4.986904	-14.735460	-0.585605	 96.741290	 64.261420	-161.378700	-7.859233	 5.948473	 48.365730	 7.881642	 12.951430	 39.464070	 9.880642	-15.436840	 17.081030	 1.803333	 3.979147	-15.098590	 4.898592	 3.004813	-9.310344	 5.224449	 0.395017	 2.014677
-0.022533	 0.280439	 1.035470	-0.052818	 29.426510	-4.736757	 34.123370	-76.637190	-153.796000	 5.425823	-69.559940	 5.476833	 48.414330	 79.353360	-55.873860	-2.385833	 28.452760	 0.000004	 21.304430	-80.348540	-157.221200	-16.909060	-71.743230	-11.185980	-11.106360	 79.640180	 29.769780	 2.384659	 28.388700	-0.000001	 0.197728	 13.620810	 1.888247	-2.984129	 20.823660	 4.334267	 3.814018	-2.975883	-0.115359	-97.000910	 70.942490	 159.412400	 7.447362	 1.576854	-52.965190	-25.292010	 2.265097	-6.416860	-28.222960	-18.046320	-21.721050	-2.027600	 6.559038	 9.033609	-5.188889	 0.308190	 3.541030	-5.234859	 0.342567	 0.430617	-1.063980	 2.196924	-2.397792	 4.847855	-11.620330	-1.099400	 96.443600	 64.671710	-161.811100	-8.842613	 6.943068	 47.868140	 7.364538	 13.157800	 40.853710	 9.776766	-15.413650	 17.533320	 1.803333	 3.979147	-15.098590	 4.898592	 3.004813	-9.310344	 5.224449	 0.395017	 2.014677
-0.020933	 0.278651	 1.044706	-0.027623	 28.624260	-4.421641	 30.857040	-75.117430	-157.136900	 5.239584	-68.267310	 5.256438	 46.949090	 79.170800	-54.292290	-2.385833	 28.452760	 0.000004	 15.095510	-78.738180	-163.025800	-16.523160	-70.389160	-10.732740	-10.441980	 79.518830	 29.081740	 2.384659	 28.388700	-0.000001	 0.978246	 13.440630	 1.762289	-2.941460	 21.007380	 4.142181	 3.825033	-3.792685	-0.164522	-96.176770	 72.295960	 159.808600	 8.133406	 3.972560	-53.940900	-24.910320	 2.242133	-6.390478	-28.742410	-18.342100	-22.385440	-2.027600	 6.559038	 9.033609	-5.188889	 0.308190	 3.541030	-5.234859	 0.342567	 0.430617	-1.194094	-0.882613	-2.268330	 4.808428	-8.721294	-1.319752	 96.007580	 65.505010	-162.255600	-9.735875	 8.362641	 47.797060	 6.815244	 13.254310	 42.089680	 9.808722	-15.683600	 17.905150	 1.803333	 3.979147	-15.098590	 4.898592	 3.004813	-9.310344	 5.224449	 0.395017	 2.014677
-0.019296	 0.276590	 1.054143	 0.010314	 27.821320	-4.111114	 28.151270	-73.518260	-159.918600	 5.068474	-66.923700	 5.048492	 45.444490	 78.976430	-52.652080	-2.385833	 28.452760	 0.000004	 10.412190	-76.989300	-167.303300	-16.163420	-68.975120	-10.299910	-9.801879	 79.366270	 28.443560	 2.384659	 28.388700	-0.000001	 1.754184	 13.235890	 1.636065	-2.897387	 21.130320	 3.965149	 3.824709	-4.576818	-0.220083	-95.323070	 73.646700	 160.164500	 8.853415	 6.366009	-54.916470	-24.516600	 2.214688	-6.357780	-29.247830	-18.649550	-23.054210	-2.027600	 6.559038	 9.033609	-5.188889	 0.308190	 3.541030	-5.234859	 0.342567	 0.430617	-1.316813	-3.940297	-2.149468	 4.779087	-5.844688	-1.533288	 95.575810	 66.335760	-162.699800	-10.658020	 9.783051	 47.712620	 6.237460	 13.347080	 43.422380	 9.829206	-15.963090	 18.272950	 1.803333	 3.979147	-15.098590	 4.898592	 3.004813	-9.310344	 5.224449	 0.395017	 2.014677
-0.017743	 0.274099	 1.063711	 0.100048	 26.952550	-3.797115	 25.668380	-71.809250	-162.454300	 5.020718	-65.544230	 4.951980	 43.747510	 78.758560	-50.857580	-2.385833	 28.452750	 0.000004	 6.658395	-75.072640	-170.628300	-15.108090	-67.577700	-9.222136	-9.501068	 79.297680	 27.837560	 2.384659	 28.388700	-0.000001	 2.512498	 13.034770	 1.507670	-2.872509	 21.294800	 3.747861	 3.829062	-5.459198	-0.227891	-94.419500	 74.994460	 160.547200	 9.829786	 8.518510	-56.001040	-24.071030	 2.184051	-6.321022	-29.528760	-18.917820	-23.721020	-2.027600	 6.559038	 9.033609	-5.188889	 0.308190	 3.541030	-5.234859	 0.342567	 0.430617	-1.439260	-7.357737	-2.294730	 4.772749	-2.654161	-1.621172	 95.115290	 67.242920	-163.157900	-11.700690	 11.209640	 47.717500	 5.672844	 13.436070	 44.777660	 9.851009	-16.257870	 18.489100	 1.803333	 3.979147	-15.098590	 4.898592	 3.004813	-9.310344	 5.224449	 0.395017	 2.014677
-0.016244	 0.270866	 1.074569	 0.206183	 25.922650	-3.467510	 23.250520	-69.757590	-164.938400	 4.992795	-63.948620	 4.862535	 41.683610	 78.529630	-48.683730	-2.385833	 28.452750	 0.000004	 3.350074	-72.777150	-173.451900	-13.954220	-65.963870	-8.054680	-9.292536	 79.223240	 27.222490	 2.384659	 28.388700	-0.000001	 3.392590	 12.791970	 1.399568	-2.827221	 21.422670	 3.524397	 3.824531	-6.451211	-0.244629	-93.322140	 76.540670	 160.927600	 11.001270	 10.923850	-57.336640	-23.537670	 2.146074	-6.274658	-29.807970	-19.231030	-24.485710	-2.027600	 6.559038	 9.033609	-5.188889	 0.308190	 3.541030	-5.234859	 0.342567	 0.430617	-1.593822	-11.311780	-2.511954	 4.766045	 1.032581	-1.700747	 94.585890	 68.293780	-163.685000	-12.904660	 12.815210	 47.762420	 5.016750	 13.508150	 46.350650	 9.864964	-16.607020	 18.712510	 1.803333	 3.979147	-15.098590	 4.898592	 3.004813	-9.310344	 5.224449	 0.395017	 2.014677
-0.014850	 0.267251	 1.084692	 0.441370	 25.127440	-3.251420	 21.497640	-67.924450	-166.664700	 4.886558	-62.378250	 4.737593	 39.965660	 78.248600	-46.825060	-2.385833	 28.452750	 0.000004	 1.102838	-70.742330	-175.193400	-12.894710	-64.423310	-6.997086	-8.734829	 79.064380	 26.289220	 2.384659	 28.388700	-0.000001	 4.216719	 12.370770	 1.222699	-2.804754	 21.386500	 3.296813	 3.824871	-7.286290	-0.305702	-93.133320	 76.734090	 161.580700	 11.977210	 12.209760	-57.924220	-23.033760	 2.109310	-6.229053	-29.669160	-19.352970	-25.151150	-2.027600	 6.559038	 9.033609	-5.188889	 0.308190	 3.541030	-5.234859	 0.342567	 0.430617	-1.665493	-13.272190	-2.249281	 4.752775	 2.835651	-1.948250	 94.239880	 68.909310	-164.132500	-13.895270	 14.074390	 47.297580	 4.386636	 13.560360	 47.891470	 9.776320	-16.784130	 18.843670	 1.803333	 3.979147	-15.098590	 4.898592	 3.004813	-9.310344	 5.224449	 0.395017	 2.014677
